<?xml version="1.0" encoding="UTF-8" standalone="no"?>
<!DOCTYPE svg PUBLIC "-//W3C//DTD SVG 1.1//EN"
 "http://www.w3.org/Graphics/SVG/1.1/DTD/svg11.dtd">
<!-- Generated by graphviz version 2.47.3 (20210619.1520)
 -->
<!-- Title: dependencies Pages: 1 -->
<svg width="746pt" height="174pt"
 viewBox="0.00 0.00 746.00 173.80" xmlns="http://www.w3.org/2000/svg" xmlns:xlink="http://www.w3.org/1999/xlink">
<g id="graph0" class="graph" transform="scale(1 1) rotate(0) translate(4 169.8)">
<title>dependencies</title>
<polygon fill="white" stroke="transparent" points="-4,4 -4,-169.8 742,-169.8 742,4 -4,4"/>
<text text-anchor="middle" x="369" y="-8.2" font-family="sans-serif" font-size="14.00">dependencies</text>
<g id="clust1" class="cluster">
<title>cluster_LoginModule</title>
<polygon fill="none" stroke="black" stroke-dasharray="1,5" points="8,-32.8 8,-157.8 730,-157.8 730,-32.8 8,-32.8"/>
</g>
<g id="clust2" class="cluster">
<title>cluster_LoginModule_declarations</title>
<polygon fill="none" stroke="black" points="178,-40.8 178,-92.8 722,-92.8 722,-40.8 178,-40.8"/>
</g>
<g id="clust6" class="cluster">
<title>cluster_LoginModule_imports</title>
<polygon fill="none" stroke="black" points="16,-40.8 16,-92.8 170,-92.8 170,-40.8 16,-40.8"/>
</g>
<!-- PageResetPasswordComponent -->
<g id="node1" class="node">
<title>PageResetPasswordComponent</title>
<polygon fill="#ffffb3" stroke="black" points="713.8,-84.8 520.2,-84.8 520.2,-48.8 713.8,-48.8 713.8,-84.8"/>
<text text-anchor="middle" x="617" y="-62.6" font-family="Times,serif" font-size="14.00">PageResetPasswordComponent</text>
</g>
<!-- LoginModule -->
<g id="node4" class="node">
<title>LoginModule</title>
<polygon fill="#8dd3c7" stroke="black" points="391.49,-149.8 388.49,-153.8 367.49,-153.8 364.49,-149.8 298.51,-149.8 298.51,-113.8 391.49,-113.8 391.49,-149.8"/>
<text text-anchor="middle" x="345" y="-127.6" font-family="Times,serif" font-size="14.00">LoginModule</text>
</g>
<!-- PageResetPasswordComponent&#45;&gt;LoginModule -->
<g id="edge1" class="edge">
<title>PageResetPasswordComponent&#45;&gt;LoginModule</title>
<path fill="none" stroke="black" d="M617,-84.91C617,-104.14 617,-131.8 617,-131.8 617,-131.8 401.76,-131.8 401.76,-131.8"/>
<polygon fill="black" stroke="black" points="401.76,-128.3 391.76,-131.8 401.76,-135.3 401.76,-128.3"/>
</g>
<!-- PageSignInComponent -->
<g id="node2" class="node">
<title>PageSignInComponent</title>
<polygon fill="#ffffb3" stroke="black" points="501.88,-84.8 356.12,-84.8 356.12,-48.8 501.88,-48.8 501.88,-84.8"/>
<text text-anchor="middle" x="429" y="-62.6" font-family="Times,serif" font-size="14.00">PageSignInComponent</text>
</g>
<!-- PageSignInComponent&#45;&gt;LoginModule -->
<g id="edge2" class="edge">
<title>PageSignInComponent&#45;&gt;LoginModule</title>
<path fill="none" stroke="black" d="M373.78,-84.91C373.78,-84.91 373.78,-103.79 373.78,-103.79"/>
<polygon fill="black" stroke="black" points="370.28,-103.79 373.78,-113.79 377.28,-103.79 370.28,-103.79"/>
</g>
<!-- PageSignUpComponent -->
<g id="node3" class="node">
<title>PageSignUpComponent</title>
<polygon fill="#ffffb3" stroke="black" points="337.82,-84.8 186.18,-84.8 186.18,-48.8 337.82,-48.8 337.82,-84.8"/>
<text text-anchor="middle" x="262" y="-62.6" font-family="Times,serif" font-size="14.00">PageSignUpComponent</text>
</g>
<!-- PageSignUpComponent&#45;&gt;LoginModule -->
<g id="edge3" class="edge">
<title>PageSignUpComponent&#45;&gt;LoginModule</title>
<path fill="none" stroke="black" d="M318.08,-84.91C318.08,-84.91 318.08,-103.79 318.08,-103.79"/>
<polygon fill="black" stroke="black" points="314.58,-103.79 318.08,-113.79 321.58,-103.79 314.58,-103.79"/>
</g>
<!-- LoginRoutingModule -->
<g id="node5" class="node">
<title>LoginRoutingModule</title>
<polygon fill="#8dd3c7" stroke="black" points="162.11,-84.8 159.11,-88.8 138.11,-88.8 135.11,-84.8 23.89,-84.8 23.89,-48.8 162.11,-48.8 162.11,-84.8"/>
<text text-anchor="middle" x="93" y="-62.6" font-family="Times,serif" font-size="14.00">LoginRoutingModule</text>
</g>
<!-- LoginRoutingModule&#45;&gt;LoginModule -->
<g id="edge4" class="edge">
<title>LoginRoutingModule&#45;&gt;LoginModule</title>
<path fill="none" stroke="black" d="M93,-84.91C93,-104.14 93,-131.8 93,-131.8 93,-131.8 288.49,-131.8 288.49,-131.8"/>
<polygon fill="black" stroke="black" points="288.49,-135.3 298.49,-131.8 288.49,-128.3 288.49,-135.3"/>
</g>
</g>
</svg>
