<?xml version="1.0" encoding="UTF-8" standalone="no"?>
<!DOCTYPE svg PUBLIC "-//W3C//DTD SVG 1.1//EN"
 "http://www.w3.org/Graphics/SVG/1.1/DTD/svg11.dtd">
<!-- Generated by graphviz version 2.47.3 (20210619.1520)
 -->
<!-- Title: dependencies Pages: 1 -->
<svg width="584pt" height="174pt"
 viewBox="0.00 0.00 584.00 173.80" xmlns="http://www.w3.org/2000/svg" xmlns:xlink="http://www.w3.org/1999/xlink">
<g id="graph0" class="graph" transform="scale(1 1) rotate(0) translate(4 169.8)">
<title>dependencies</title>
<polygon fill="white" stroke="transparent" points="-4,4 -4,-169.8 580,-169.8 580,4 -4,4"/>
<text text-anchor="middle" x="288" y="-8.2" font-family="sans-serif" font-size="14.00">dependencies</text>
<g id="clust1" class="cluster">
<title>cluster_LoginModule</title>
<polygon fill="none" stroke="black" stroke-dasharray="1,5" points="8,-32.8 8,-157.8 568,-157.8 568,-32.8 8,-32.8"/>
</g>
<g id="clust2" class="cluster">
<title>cluster_LoginModule_declarations</title>
<polygon fill="none" stroke="black" points="16,-40.8 16,-92.8 560,-92.8 560,-40.8 16,-40.8"/>
</g>
<!-- PageResetPasswordComponent -->
<g id="node1" class="node">
<title>PageResetPasswordComponent</title>
<polygon fill="#ffffb3" stroke="black" points="551.8,-84.8 358.2,-84.8 358.2,-48.8 551.8,-48.8 551.8,-84.8"/>
<text text-anchor="middle" x="455" y="-62.6" font-family="Times,serif" font-size="14.00">PageResetPasswordComponent</text>
</g>
<!-- LoginModule -->
<g id="node4" class="node">
<title>LoginModule</title>
<polygon fill="#8dd3c7" stroke="black" points="313.49,-149.8 310.49,-153.8 289.49,-153.8 286.49,-149.8 220.51,-149.8 220.51,-113.8 313.49,-113.8 313.49,-149.8"/>
<text text-anchor="middle" x="267" y="-127.6" font-family="Times,serif" font-size="14.00">LoginModule</text>
</g>
<!-- PageResetPasswordComponent&#45;&gt;LoginModule -->
<g id="edge1" class="edge">
<title>PageResetPasswordComponent&#45;&gt;LoginModule</title>
<path fill="none" stroke="black" d="M455,-84.91C455,-104.14 455,-131.8 455,-131.8 455,-131.8 323.96,-131.8 323.96,-131.8"/>
<polygon fill="black" stroke="black" points="323.96,-128.3 313.96,-131.8 323.96,-135.3 323.96,-128.3"/>
</g>
<!-- PageSignInComponent -->
<g id="node2" class="node">
<title>PageSignInComponent</title>
<polygon fill="#ffffb3" stroke="black" points="339.88,-84.8 194.12,-84.8 194.12,-48.8 339.88,-48.8 339.88,-84.8"/>
<text text-anchor="middle" x="267" y="-62.6" font-family="Times,serif" font-size="14.00">PageSignInComponent</text>
</g>
<!-- PageSignInComponent&#45;&gt;LoginModule -->
<g id="edge2" class="edge">
<title>PageSignInComponent&#45;&gt;LoginModule</title>
<path fill="none" stroke="black" d="M267,-84.91C267,-84.91 267,-103.79 267,-103.79"/>
<polygon fill="black" stroke="black" points="263.5,-103.79 267,-113.79 270.5,-103.79 263.5,-103.79"/>
</g>
<!-- PageSignUpComponent -->
<g id="node3" class="node">
<title>PageSignUpComponent</title>
<polygon fill="#ffffb3" stroke="black" points="175.82,-84.8 24.18,-84.8 24.18,-48.8 175.82,-48.8 175.82,-84.8"/>
<text text-anchor="middle" x="100" y="-62.6" font-family="Times,serif" font-size="14.00">PageSignUpComponent</text>
</g>
<!-- PageSignUpComponent&#45;&gt;LoginModule -->
<g id="edge3" class="edge">
<title>PageSignUpComponent&#45;&gt;LoginModule</title>
<path fill="none" stroke="black" d="M100,-84.91C100,-104.14 100,-131.8 100,-131.8 100,-131.8 210.48,-131.8 210.48,-131.8"/>
<polygon fill="black" stroke="black" points="210.48,-135.3 220.48,-131.8 210.48,-128.3 210.48,-135.3"/>
</g>
</g>
</svg>
