<?xml version="1.0" encoding="UTF-8" standalone="no"?>
<!DOCTYPE svg PUBLIC "-//W3C//DTD SVG 1.1//EN"
 "http://www.w3.org/Graphics/SVG/1.1/DTD/svg11.dtd">
<!-- Generated by graphviz version 2.47.3 (20210619.1520)
 -->
<!-- Title: dependencies Pages: 1 -->
<svg width="5091pt" height="253pt"
 viewBox="0.00 0.00 5091.00 252.80" xmlns="http://www.w3.org/2000/svg" xmlns:xlink="http://www.w3.org/1999/xlink">
<g id="graph0" class="graph" transform="scale(1 1) rotate(0) translate(4 248.8)">
<title>dependencies</title>
<polygon fill="white" stroke="transparent" points="-4,4 -4,-248.8 5087,-248.8 5087,4 -4,4"/>
<text text-anchor="middle" x="2541.5" y="-8.2" font-family="sans-serif" font-size="14.00">dependencies</text>
<g id="clust1" class="cluster">
<title>cluster_AppModule</title>
<polygon fill="none" stroke="black" stroke-dasharray="1,5" points="8,-32.8 8,-236.8 403,-236.8 403,-32.8 8,-32.8"/>
</g>
<g id="clust2" class="cluster">
<title>cluster_AppModule_declarations</title>
<polygon fill="none" stroke="black" points="16,-40.8 16,-92.8 138,-92.8 138,-40.8 16,-40.8"/>
</g>
<g id="clust4" class="cluster">
<title>cluster_AppModule_imports</title>
<polygon fill="none" stroke="black" points="146,-40.8 146,-92.8 395,-92.8 395,-40.8 146,-40.8"/>
</g>
<g id="clust6" class="cluster">
<title>cluster_AppModule_bootstrap</title>
<polygon fill="none" stroke="black" points="156,-176.8 156,-228.8 280,-228.8 280,-176.8 156,-176.8"/>
</g>
<g id="clust14" class="cluster">
<title>cluster_ClientsModule</title>
<polygon fill="none" stroke="black" stroke-dasharray="1,5" points="1706,-32.8 1706,-160.8 2276,-160.8 2276,-32.8 1706,-32.8"/>
</g>
<g id="clust15" class="cluster">
<title>cluster_ClientsModule_declarations</title>
<polygon fill="none" stroke="black" points="1714,-40.8 1714,-92.8 2268,-92.8 2268,-40.8 1714,-40.8"/>
</g>
<g id="clust23" class="cluster">
<title>cluster_CoreModule</title>
<polygon fill="none" stroke="black" stroke-dasharray="1,5" points="411,-100.8 411,-168.8 1698,-168.8 1698,-100.8 411,-100.8"/>
</g>
<g id="clust24" class="cluster">
<title>cluster_CoreModule_declarations</title>
<polygon fill="none" stroke="black" points="1294,-108.8 1294,-160.8 1690,-160.8 1690,-108.8 1294,-108.8"/>
</g>
<g id="clust29" class="cluster">
<title>cluster_CoreModule_exports</title>
<polygon fill="none" stroke="black" points="419,-108.8 419,-160.8 1286,-160.8 1286,-108.8 419,-108.8"/>
</g>
<g id="clust32" class="cluster">
<title>cluster_IconsModule</title>
<polygon fill="none" stroke="black" stroke-dasharray="1,5" points="2284,-32.8 2284,-236.8 2925,-236.8 2925,-32.8 2284,-32.8"/>
</g>
<g id="clust33" class="cluster">
<title>cluster_IconsModule_declarations</title>
<polygon fill="none" stroke="black" points="2301,-40.8 2301,-92.8 2911,-92.8 2911,-40.8 2301,-40.8"/>
</g>
<g id="clust39" class="cluster">
<title>cluster_IconsModule_exports</title>
<polygon fill="none" stroke="black" points="2292,-176.8 2292,-228.8 2917,-228.8 2917,-176.8 2292,-176.8"/>
</g>
<g id="clust42" class="cluster">
<title>cluster_LoginModule</title>
<polygon fill="none" stroke="black" stroke-dasharray="1,5" points="2933,-32.8 2933,-160.8 3655,-160.8 3655,-32.8 2933,-32.8"/>
</g>
<g id="clust43" class="cluster">
<title>cluster_LoginModule_declarations</title>
<polygon fill="none" stroke="black" points="3103,-40.8 3103,-92.8 3647,-92.8 3647,-40.8 3103,-40.8"/>
</g>
<g id="clust47" class="cluster">
<title>cluster_LoginModule_imports</title>
<polygon fill="none" stroke="black" points="2941,-40.8 2941,-92.8 3095,-92.8 3095,-40.8 2941,-40.8"/>
</g>
<g id="clust57" class="cluster">
<title>cluster_OrdersModule</title>
<polygon fill="none" stroke="black" stroke-dasharray="1,5" points="3663,-32.8 3663,-160.8 4395,-160.8 4395,-32.8 3663,-32.8"/>
</g>
<g id="clust58" class="cluster">
<title>cluster_OrdersModule_declarations</title>
<polygon fill="none" stroke="black" points="3837,-40.8 3837,-92.8 4387,-92.8 4387,-40.8 3837,-40.8"/>
</g>
<g id="clust62" class="cluster">
<title>cluster_OrdersModule_imports</title>
<polygon fill="none" stroke="black" points="3671,-40.8 3671,-92.8 3829,-92.8 3829,-40.8 3671,-40.8"/>
</g>
<g id="clust72" class="cluster">
<title>cluster_PageNotFoundModule</title>
<polygon fill="none" stroke="black" stroke-dasharray="1,5" points="4403,-32.8 4403,-160.8 4813,-160.8 4813,-32.8 4403,-32.8"/>
</g>
<g id="clust73" class="cluster">
<title>cluster_PageNotFoundModule_declarations</title>
<polygon fill="none" stroke="black" points="4623,-40.8 4623,-92.8 4805,-92.8 4805,-40.8 4623,-40.8"/>
</g>
<g id="clust75" class="cluster">
<title>cluster_PageNotFoundModule_imports</title>
<polygon fill="none" stroke="black" points="4411,-40.8 4411,-92.8 4615,-92.8 4615,-40.8 4411,-40.8"/>
</g>
<g id="clust97" class="cluster">
<title>cluster_UiModule</title>
<polygon fill="none" stroke="black" stroke-dasharray="1,5" points="4821,-32.8 4821,-236.8 5075,-236.8 5075,-32.8 4821,-32.8"/>
</g>
<g id="clust98" class="cluster">
<title>cluster_UiModule_declarations</title>
<polygon fill="none" stroke="black" points="4832,-40.8 4832,-92.8 5064,-92.8 5064,-40.8 4832,-40.8"/>
</g>
<g id="clust102" class="cluster">
<title>cluster_UiModule_exports</title>
<polygon fill="none" stroke="black" points="4829,-176.8 4829,-228.8 5067,-228.8 5067,-176.8 4829,-176.8"/>
</g>
<!-- AppComponent -->
<g id="node1" class="node">
<title>AppComponent</title>
<polygon fill="#ffffb3" stroke="black" points="129.94,-84.8 24.06,-84.8 24.06,-48.8 129.94,-48.8 129.94,-84.8"/>
<text text-anchor="middle" x="77" y="-62.6" font-family="Times,serif" font-size="14.00">AppComponent</text>
</g>
<!-- AppModule -->
<g id="node2" class="node">
<title>AppModule</title>
<polygon fill="#8dd3c7" stroke="black" points="259.66,-152.8 256.66,-156.8 235.66,-156.8 232.66,-152.8 176.34,-152.8 176.34,-116.8 259.66,-116.8 259.66,-152.8"/>
<text text-anchor="middle" x="218" y="-130.6" font-family="Times,serif" font-size="14.00">AppModule</text>
</g>
<!-- AppComponent&#45;&gt;AppModule -->
<g id="edge1" class="edge">
<title>AppComponent&#45;&gt;AppModule</title>
<path fill="none" stroke="black" d="M77,-85.02C77,-105.17 77,-134.8 77,-134.8 77,-134.8 166.08,-134.8 166.08,-134.8"/>
<polygon fill="black" stroke="black" points="166.08,-138.3 176.08,-134.8 166.08,-131.3 166.08,-138.3"/>
</g>
<!-- AppComponent  -->
<g id="node5" class="node">
<title>AppComponent </title>
<polygon fill="#80b1d3" stroke="black" points="272.44,-220.8 163.56,-220.8 163.56,-184.8 272.44,-184.8 272.44,-220.8"/>
<text text-anchor="middle" x="218" y="-198.6" font-family="Times,serif" font-size="14.00">AppComponent </text>
</g>
<!-- AppModule&#45;&gt;AppComponent  -->
<g id="edge4" class="edge">
<title>AppModule&#45;&gt;AppComponent </title>
<path fill="none" stroke="black" stroke-dasharray="1,5" d="M218,-153.02C218,-153.02 218,-174.53 218,-174.53"/>
<polygon fill="black" stroke="black" points="214.5,-174.53 218,-184.53 221.5,-174.53 214.5,-174.53"/>
</g>
<!-- AppRoutingModule -->
<g id="node3" class="node">
<title>AppRoutingModule</title>
<polygon fill="#8dd3c7" stroke="black" points="282.27,-84.8 279.27,-88.8 258.27,-88.8 255.27,-84.8 153.73,-84.8 153.73,-48.8 282.27,-48.8 282.27,-84.8"/>
<text text-anchor="middle" x="218" y="-62.6" font-family="Times,serif" font-size="14.00">AppRoutingModule</text>
</g>
<!-- AppRoutingModule&#45;&gt;AppModule -->
<g id="edge2" class="edge">
<title>AppRoutingModule&#45;&gt;AppModule</title>
<path fill="none" stroke="black" d="M218,-85.02C218,-85.02 218,-106.53 218,-106.53"/>
<polygon fill="black" stroke="black" points="214.5,-106.53 218,-116.53 221.5,-106.53 214.5,-106.53"/>
</g>
<!-- CoreModule -->
<g id="node4" class="node">
<title>CoreModule</title>
<polygon fill="#8dd3c7" stroke="black" points="387.26,-84.8 384.26,-88.8 363.26,-88.8 360.26,-84.8 300.74,-84.8 300.74,-48.8 387.26,-48.8 387.26,-84.8"/>
<text text-anchor="middle" x="344" y="-62.6" font-family="Times,serif" font-size="14.00">CoreModule</text>
</g>
<!-- CoreModule&#45;&gt;AppModule -->
<g id="edge3" class="edge">
<title>CoreModule&#45;&gt;AppModule</title>
<path fill="none" stroke="black" d="M344,-85.02C344,-105.17 344,-134.8 344,-134.8 344,-134.8 269.96,-134.8 269.96,-134.8"/>
<polygon fill="black" stroke="black" points="269.96,-131.3 259.96,-134.8 269.96,-138.3 269.96,-131.3"/>
</g>
<!-- FooterComponent  -->
<g id="node13" class="node">
<title>FooterComponent </title>
<polygon fill="#fb8072" stroke="black" points="1277.88,-152.8 1156.12,-152.8 1156.12,-116.8 1277.88,-116.8 1277.88,-152.8"/>
<text text-anchor="middle" x="1217" y="-130.6" font-family="Times,serif" font-size="14.00">FooterComponent </text>
</g>
<!-- CoreModule&#45;&gt;FooterComponent  -->
<g id="edge11" class="edge">
<title>CoreModule&#45;&gt;FooterComponent </title>
<path fill="none" stroke="black" stroke-dasharray="5,2" d="M387.29,-62.8C563.45,-62.8 1217,-62.8 1217,-62.8 1217,-62.8 1217,-106.63 1217,-106.63"/>
<polygon fill="black" stroke="black" points="1213.5,-106.63 1217,-116.63 1220.5,-106.63 1213.5,-106.63"/>
</g>
<!-- HeaderComponent  -->
<g id="node14" class="node">
<title>HeaderComponent </title>
<polygon fill="#fb8072" stroke="black" points="1138.74,-152.8 1013.26,-152.8 1013.26,-116.8 1138.74,-116.8 1138.74,-152.8"/>
<text text-anchor="middle" x="1076" y="-130.6" font-family="Times,serif" font-size="14.00">HeaderComponent </text>
</g>
<!-- CoreModule&#45;&gt;HeaderComponent  -->
<g id="edge12" class="edge">
<title>CoreModule&#45;&gt;HeaderComponent </title>
<path fill="none" stroke="black" stroke-dasharray="5,2" d="M387.33,-65.8C544.57,-65.8 1076,-65.8 1076,-65.8 1076,-65.8 1076,-106.67 1076,-106.67"/>
<polygon fill="black" stroke="black" points="1072.5,-106.67 1076,-116.67 1079.5,-106.67 1072.5,-106.67"/>
</g>
<!-- IconsModule  -->
<g id="node15" class="node">
<title>IconsModule </title>
<polygon fill="#fb8072" stroke="black" points="995.87,-152.8 902.13,-152.8 902.13,-116.8 995.87,-116.8 995.87,-152.8"/>
<text text-anchor="middle" x="949" y="-130.6" font-family="Times,serif" font-size="14.00">IconsModule </text>
</g>
<!-- CoreModule&#45;&gt;IconsModule  -->
<g id="edge13" class="edge">
<title>CoreModule&#45;&gt;IconsModule </title>
<path fill="none" stroke="black" stroke-dasharray="5,2" d="M387.51,-68.8C526.23,-68.8 949,-68.8 949,-68.8 949,-68.8 949,-106.77 949,-106.77"/>
<polygon fill="black" stroke="black" points="945.5,-106.77 949,-116.77 952.5,-106.77 945.5,-106.77"/>
</g>
<!-- LoginModule  -->
<g id="node16" class="node">
<title>LoginModule </title>
<polygon fill="#fb8072" stroke="black" points="884.49,-152.8 787.51,-152.8 787.51,-116.8 884.49,-116.8 884.49,-152.8"/>
<text text-anchor="middle" x="836" y="-130.6" font-family="Times,serif" font-size="14.00">LoginModule </text>
</g>
<!-- CoreModule&#45;&gt;LoginModule  -->
<g id="edge14" class="edge">
<title>CoreModule&#45;&gt;LoginModule </title>
<path fill="none" stroke="black" stroke-dasharray="5,2" d="M387.66,-71.8C508.07,-71.8 836,-71.8 836,-71.8 836,-71.8 836,-106.58 836,-106.58"/>
<polygon fill="black" stroke="black" points="832.5,-106.58 836,-116.58 839.5,-106.58 832.5,-106.58"/>
</g>
<!-- NavComponent  -->
<g id="node17" class="node">
<title>NavComponent </title>
<polygon fill="#fb8072" stroke="black" points="770.15,-152.8 661.85,-152.8 661.85,-116.8 770.15,-116.8 770.15,-152.8"/>
<text text-anchor="middle" x="716" y="-130.6" font-family="Times,serif" font-size="14.00">NavComponent </text>
</g>
<!-- CoreModule&#45;&gt;NavComponent  -->
<g id="edge15" class="edge">
<title>CoreModule&#45;&gt;NavComponent </title>
<path fill="none" stroke="black" stroke-dasharray="5,2" d="M387.4,-75.8C485.53,-75.8 716,-75.8 716,-75.8 716,-75.8 716,-106.78 716,-106.78"/>
<polygon fill="black" stroke="black" points="712.5,-106.78 716,-116.78 719.5,-106.78 712.5,-106.78"/>
</g>
<!-- TemplatesModule  -->
<g id="node18" class="node">
<title>TemplatesModule </title>
<polygon fill="#fb8072" stroke="black" points="643.86,-152.8 522.14,-152.8 522.14,-116.8 643.86,-116.8 643.86,-152.8"/>
<text text-anchor="middle" x="583" y="-130.6" font-family="Times,serif" font-size="14.00">TemplatesModule </text>
</g>
<!-- CoreModule&#45;&gt;TemplatesModule  -->
<g id="edge16" class="edge">
<title>CoreModule&#45;&gt;TemplatesModule </title>
<path fill="none" stroke="black" stroke-dasharray="5,2" d="M387.28,-78.8C456.15,-78.8 583,-78.8 583,-78.8 583,-78.8 583,-106.77 583,-106.77"/>
<polygon fill="black" stroke="black" points="579.5,-106.77 583,-116.77 586.5,-106.77 579.5,-106.77"/>
</g>
<!-- UiModule  -->
<g id="node19" class="node">
<title>UiModule </title>
<polygon fill="#fb8072" stroke="black" points="504.55,-152.8 427.45,-152.8 427.45,-116.8 504.55,-116.8 504.55,-152.8"/>
<text text-anchor="middle" x="466" y="-130.6" font-family="Times,serif" font-size="14.00">UiModule </text>
</g>
<!-- CoreModule&#45;&gt;UiModule  -->
<g id="edge17" class="edge">
<title>CoreModule&#45;&gt;UiModule </title>
<path fill="none" stroke="black" stroke-dasharray="5,2" d="M387.36,-81.8C422.42,-81.8 466,-81.8 466,-81.8 466,-81.8 466,-106.56 466,-106.56"/>
<polygon fill="black" stroke="black" points="462.5,-106.56 466,-116.56 469.5,-106.56 462.5,-106.56"/>
</g>
<!-- PageAddClientComponent -->
<g id="node6" class="node">
<title>PageAddClientComponent</title>
<polygon fill="#ffffb3" stroke="black" points="2260.37,-84.8 2093.63,-84.8 2093.63,-48.8 2260.37,-48.8 2260.37,-84.8"/>
<text text-anchor="middle" x="2177" y="-62.6" font-family="Times,serif" font-size="14.00">PageAddClientComponent</text>
</g>
<!-- ClientsModule -->
<g id="node9" class="node">
<title>ClientsModule</title>
<polygon fill="#8dd3c7" stroke="black" points="2042.72,-152.8 2039.72,-156.8 2018.72,-156.8 2015.72,-152.8 1943.28,-152.8 1943.28,-116.8 2042.72,-116.8 2042.72,-152.8"/>
<text text-anchor="middle" x="1993" y="-130.6" font-family="Times,serif" font-size="14.00">ClientsModule</text>
</g>
<!-- PageAddClientComponent&#45;&gt;ClientsModule -->
<g id="edge5" class="edge">
<title>PageAddClientComponent&#45;&gt;ClientsModule</title>
<path fill="none" stroke="black" d="M2177,-84.82C2177,-102.17 2177,-125.8 2177,-125.8 2177,-125.8 2052.79,-125.8 2052.79,-125.8"/>
<polygon fill="black" stroke="black" points="2052.79,-122.3 2042.79,-125.8 2052.79,-129.3 2052.79,-122.3"/>
</g>
<!-- PageEditClientComponent -->
<g id="node7" class="node">
<title>PageEditClientComponent</title>
<polygon fill="#ffffb3" stroke="black" points="2076.1,-84.8 1909.9,-84.8 1909.9,-48.8 2076.1,-48.8 2076.1,-84.8"/>
<text text-anchor="middle" x="1993" y="-62.6" font-family="Times,serif" font-size="14.00">PageEditClientComponent</text>
</g>
<!-- PageEditClientComponent&#45;&gt;ClientsModule -->
<g id="edge6" class="edge">
<title>PageEditClientComponent&#45;&gt;ClientsModule</title>
<path fill="none" stroke="black" d="M1993,-85.02C1993,-85.02 1993,-106.53 1993,-106.53"/>
<polygon fill="black" stroke="black" points="1989.5,-106.53 1993,-116.53 1996.5,-106.53 1989.5,-106.53"/>
</g>
<!-- PageListClientsComponent -->
<g id="node8" class="node">
<title>PageListClientsComponent</title>
<polygon fill="#ffffb3" stroke="black" points="1891.99,-84.8 1722.01,-84.8 1722.01,-48.8 1891.99,-48.8 1891.99,-84.8"/>
<text text-anchor="middle" x="1807" y="-62.6" font-family="Times,serif" font-size="14.00">PageListClientsComponent</text>
</g>
<!-- PageListClientsComponent&#45;&gt;ClientsModule -->
<g id="edge7" class="edge">
<title>PageListClientsComponent&#45;&gt;ClientsModule</title>
<path fill="none" stroke="black" d="M1807,-85.02C1807,-105.17 1807,-134.8 1807,-134.8 1807,-134.8 1933.16,-134.8 1933.16,-134.8"/>
<polygon fill="black" stroke="black" points="1933.16,-138.3 1943.16,-134.8 1933.16,-131.3 1933.16,-138.3"/>
</g>
<!-- FooterComponent -->
<g id="node10" class="node">
<title>FooterComponent</title>
<polygon fill="#ffffb3" stroke="black" points="1681.88,-152.8 1564.12,-152.8 1564.12,-116.8 1681.88,-116.8 1681.88,-152.8"/>
<text text-anchor="middle" x="1623" y="-130.6" font-family="Times,serif" font-size="14.00">FooterComponent</text>
</g>
<!-- FooterComponent&#45;&gt;CoreModule -->
<g id="edge8" class="edge">
<title>FooterComponent&#45;&gt;CoreModule</title>
<path fill="none" stroke="black" d="M1623,-116.6C1623,-92.44 1623,-52.8 1623,-52.8 1623,-52.8 397.29,-52.8 397.29,-52.8"/>
<polygon fill="black" stroke="black" points="397.29,-49.3 387.29,-52.8 397.29,-56.3 397.29,-49.3"/>
</g>
<!-- HeaderComponent -->
<g id="node11" class="node">
<title>HeaderComponent</title>
<polygon fill="#ffffb3" stroke="black" points="1545.74,-152.8 1424.26,-152.8 1424.26,-116.8 1545.74,-116.8 1545.74,-152.8"/>
<text text-anchor="middle" x="1485" y="-130.6" font-family="Times,serif" font-size="14.00">HeaderComponent</text>
</g>
<!-- HeaderComponent&#45;&gt;CoreModule -->
<g id="edge9" class="edge">
<title>HeaderComponent&#45;&gt;CoreModule</title>
<path fill="none" stroke="black" d="M1485,-116.48C1485,-93.14 1485,-55.8 1485,-55.8 1485,-55.8 397.34,-55.8 397.34,-55.8"/>
<polygon fill="black" stroke="black" points="397.34,-52.3 387.34,-55.8 397.34,-59.3 397.34,-52.3"/>
</g>
<!-- NavComponent -->
<g id="node12" class="node">
<title>NavComponent</title>
<polygon fill="#ffffb3" stroke="black" points="1406.15,-152.8 1301.85,-152.8 1301.85,-116.8 1406.15,-116.8 1406.15,-152.8"/>
<text text-anchor="middle" x="1354" y="-130.6" font-family="Times,serif" font-size="14.00">NavComponent</text>
</g>
<!-- NavComponent&#45;&gt;CoreModule -->
<g id="edge10" class="edge">
<title>NavComponent&#45;&gt;CoreModule</title>
<path fill="none" stroke="black" d="M1354,-116.79C1354,-94.31 1354,-58.8 1354,-58.8 1354,-58.8 397.4,-58.8 397.4,-58.8"/>
<polygon fill="black" stroke="black" points="397.4,-55.3 387.4,-58.8 397.4,-62.3 397.4,-55.3"/>
</g>
<!-- IconCloseComponent -->
<g id="node20" class="node">
<title>IconCloseComponent</title>
<polygon fill="#ffffb3" stroke="black" points="2903.09,-84.8 2764.91,-84.8 2764.91,-48.8 2903.09,-48.8 2903.09,-84.8"/>
<text text-anchor="middle" x="2834" y="-62.6" font-family="Times,serif" font-size="14.00">IconCloseComponent</text>
</g>
<!-- IconsModule -->
<g id="node24" class="node">
<title>IconsModule</title>
<polygon fill="#8dd3c7" stroke="black" points="2568.87,-152.8 2565.87,-156.8 2544.87,-156.8 2541.87,-152.8 2479.13,-152.8 2479.13,-116.8 2568.87,-116.8 2568.87,-152.8"/>
<text text-anchor="middle" x="2524" y="-130.6" font-family="Times,serif" font-size="14.00">IconsModule</text>
</g>
<!-- IconCloseComponent&#45;&gt;IconsModule -->
<g id="edge18" class="edge">
<title>IconCloseComponent&#45;&gt;IconsModule</title>
<path fill="none" stroke="black" d="M2857.77,-85.02C2857.77,-105.17 2857.77,-134.8 2857.77,-134.8 2857.77,-134.8 2579.01,-134.8 2579.01,-134.8"/>
<polygon fill="black" stroke="black" points="2579.01,-131.3 2569.01,-134.8 2579.01,-138.3 2579.01,-131.3"/>
</g>
<!-- IconDeleteComponent -->
<g id="node21" class="node">
<title>IconDeleteComponent</title>
<polygon fill="#ffffb3" stroke="black" points="2747.24,-84.8 2604.76,-84.8 2604.76,-48.8 2747.24,-48.8 2747.24,-84.8"/>
<text text-anchor="middle" x="2676" y="-62.6" font-family="Times,serif" font-size="14.00">IconDeleteComponent</text>
</g>
<!-- IconDeleteComponent&#45;&gt;IconsModule -->
<g id="edge19" class="edge">
<title>IconDeleteComponent&#45;&gt;IconsModule</title>
<path fill="none" stroke="black" d="M2699.79,-85.07C2699.79,-103.36 2699.79,-128.8 2699.79,-128.8 2699.79,-128.8 2579.27,-128.8 2579.27,-128.8"/>
<polygon fill="black" stroke="black" points="2579.27,-125.3 2569.27,-128.8 2579.27,-132.3 2579.27,-125.3"/>
</g>
<!-- IconEditComponent -->
<g id="node22" class="node">
<title>IconEditComponent</title>
<polygon fill="#ffffb3" stroke="black" points="2586.54,-84.8 2457.46,-84.8 2457.46,-48.8 2586.54,-48.8 2586.54,-84.8"/>
<text text-anchor="middle" x="2522" y="-62.6" font-family="Times,serif" font-size="14.00">IconEditComponent</text>
</g>
<!-- IconEditComponent&#45;&gt;IconsModule -->
<g id="edge20" class="edge">
<title>IconEditComponent&#45;&gt;IconsModule</title>
<path fill="none" stroke="black" d="M2524,-85.02C2524,-85.02 2524,-106.53 2524,-106.53"/>
<polygon fill="black" stroke="black" points="2520.5,-106.53 2524,-116.53 2527.5,-106.53 2520.5,-106.53"/>
</g>
<!-- IconNavComponent -->
<g id="node23" class="node">
<title>IconNavComponent</title>
<polygon fill="#ffffb3" stroke="black" points="2438.53,-84.8 2309.47,-84.8 2309.47,-48.8 2438.53,-48.8 2438.53,-84.8"/>
<text text-anchor="middle" x="2374" y="-62.6" font-family="Times,serif" font-size="14.00">IconNavComponent</text>
</g>
<!-- IconNavComponent&#45;&gt;IconsModule -->
<g id="edge21" class="edge">
<title>IconNavComponent&#45;&gt;IconsModule</title>
<path fill="none" stroke="black" d="M2392.09,-85.02C2392.09,-105.17 2392.09,-134.8 2392.09,-134.8 2392.09,-134.8 2468.97,-134.8 2468.97,-134.8"/>
<polygon fill="black" stroke="black" points="2468.97,-138.3 2478.97,-134.8 2468.97,-131.3 2468.97,-138.3"/>
</g>
<!-- IconCloseComponent  -->
<g id="node25" class="node">
<title>IconCloseComponent </title>
<polygon fill="#fb8072" stroke="black" points="2908.59,-220.8 2767.41,-220.8 2767.41,-184.8 2908.59,-184.8 2908.59,-220.8"/>
<text text-anchor="middle" x="2838" y="-198.6" font-family="Times,serif" font-size="14.00">IconCloseComponent </text>
</g>
<!-- IconsModule&#45;&gt;IconCloseComponent  -->
<g id="edge22" class="edge">
<title>IconsModule&#45;&gt;IconCloseComponent </title>
<path fill="none" stroke="black" stroke-dasharray="5,2" d="M2569.08,-140.8C2650.21,-140.8 2812.48,-140.8 2812.48,-140.8 2812.48,-140.8 2812.48,-174.53 2812.48,-174.53"/>
<polygon fill="black" stroke="black" points="2808.98,-174.53 2812.48,-184.53 2815.98,-174.53 2808.98,-174.53"/>
</g>
<!-- IconDeleteComponent  -->
<g id="node26" class="node">
<title>IconDeleteComponent </title>
<polygon fill="#fb8072" stroke="black" points="2749.24,-220.8 2602.76,-220.8 2602.76,-184.8 2749.24,-184.8 2749.24,-220.8"/>
<text text-anchor="middle" x="2676" y="-198.6" font-family="Times,serif" font-size="14.00">IconDeleteComponent </text>
</g>
<!-- IconsModule&#45;&gt;IconDeleteComponent  -->
<g id="edge23" class="edge">
<title>IconsModule&#45;&gt;IconDeleteComponent </title>
<path fill="none" stroke="black" stroke-dasharray="5,2" d="M2569.2,-146.8C2606.11,-146.8 2652.21,-146.8 2652.21,-146.8 2652.21,-146.8 2652.21,-174.77 2652.21,-174.77"/>
<polygon fill="black" stroke="black" points="2648.71,-174.77 2652.21,-184.77 2655.71,-174.77 2648.71,-174.77"/>
</g>
<!-- IconEditComponent  -->
<g id="node27" class="node">
<title>IconEditComponent </title>
<polygon fill="#fb8072" stroke="black" points="2584.54,-220.8 2451.46,-220.8 2451.46,-184.8 2584.54,-184.8 2584.54,-220.8"/>
<text text-anchor="middle" x="2518" y="-198.6" font-family="Times,serif" font-size="14.00">IconEditComponent </text>
</g>
<!-- IconsModule&#45;&gt;IconEditComponent  -->
<g id="edge24" class="edge">
<title>IconsModule&#45;&gt;IconEditComponent </title>
<path fill="none" stroke="black" stroke-dasharray="5,2" d="M2524,-153.02C2524,-153.02 2524,-174.53 2524,-174.53"/>
<polygon fill="black" stroke="black" points="2520.5,-174.53 2524,-184.53 2527.5,-174.53 2520.5,-174.53"/>
</g>
<!-- IconNavComponent  -->
<g id="node28" class="node">
<title>IconNavComponent </title>
<polygon fill="#fb8072" stroke="black" points="2433.53,-220.8 2300.47,-220.8 2300.47,-184.8 2433.53,-184.8 2433.53,-220.8"/>
<text text-anchor="middle" x="2367" y="-198.6" font-family="Times,serif" font-size="14.00">IconNavComponent </text>
</g>
<!-- IconsModule&#45;&gt;IconNavComponent  -->
<g id="edge25" class="edge">
<title>IconsModule&#45;&gt;IconNavComponent </title>
<path fill="none" stroke="black" stroke-dasharray="5,2" d="M2478.91,-143.8C2427.55,-143.8 2350.66,-143.8 2350.66,-143.8 2350.66,-143.8 2350.66,-174.78 2350.66,-174.78"/>
<polygon fill="black" stroke="black" points="2347.16,-174.78 2350.66,-184.78 2354.16,-174.78 2347.16,-174.78"/>
</g>
<!-- PageResetPasswordComponent -->
<g id="node29" class="node">
<title>PageResetPasswordComponent</title>
<polygon fill="#ffffb3" stroke="black" points="3638.8,-84.8 3445.2,-84.8 3445.2,-48.8 3638.8,-48.8 3638.8,-84.8"/>
<text text-anchor="middle" x="3542" y="-62.6" font-family="Times,serif" font-size="14.00">PageResetPasswordComponent</text>
</g>
<!-- LoginModule -->
<g id="node32" class="node">
<title>LoginModule</title>
<polygon fill="#8dd3c7" stroke="black" points="3316.49,-152.8 3313.49,-156.8 3292.49,-156.8 3289.49,-152.8 3223.51,-152.8 3223.51,-116.8 3316.49,-116.8 3316.49,-152.8"/>
<text text-anchor="middle" x="3270" y="-130.6" font-family="Times,serif" font-size="14.00">LoginModule</text>
</g>
<!-- PageResetPasswordComponent&#45;&gt;LoginModule -->
<g id="edge26" class="edge">
<title>PageResetPasswordComponent&#45;&gt;LoginModule</title>
<path fill="none" stroke="black" d="M3542,-85.07C3542,-103.36 3542,-128.8 3542,-128.8 3542,-128.8 3326.76,-128.8 3326.76,-128.8"/>
<polygon fill="black" stroke="black" points="3326.76,-125.3 3316.76,-128.8 3326.76,-132.3 3326.76,-125.3"/>
</g>
<!-- PageSignInComponent -->
<g id="node30" class="node">
<title>PageSignInComponent</title>
<polygon fill="#ffffb3" stroke="black" points="3426.88,-84.8 3281.12,-84.8 3281.12,-48.8 3426.88,-48.8 3426.88,-84.8"/>
<text text-anchor="middle" x="3354" y="-62.6" font-family="Times,serif" font-size="14.00">PageSignInComponent</text>
</g>
<!-- PageSignInComponent&#45;&gt;LoginModule -->
<g id="edge27" class="edge">
<title>PageSignInComponent&#45;&gt;LoginModule</title>
<path fill="none" stroke="black" d="M3298.78,-85.02C3298.78,-85.02 3298.78,-106.53 3298.78,-106.53"/>
<polygon fill="black" stroke="black" points="3295.28,-106.53 3298.78,-116.53 3302.28,-106.53 3295.28,-106.53"/>
</g>
<!-- PageSignUpComponent -->
<g id="node31" class="node">
<title>PageSignUpComponent</title>
<polygon fill="#ffffb3" stroke="black" points="3262.82,-84.8 3111.18,-84.8 3111.18,-48.8 3262.82,-48.8 3262.82,-84.8"/>
<text text-anchor="middle" x="3187" y="-62.6" font-family="Times,serif" font-size="14.00">PageSignUpComponent</text>
</g>
<!-- PageSignUpComponent&#45;&gt;LoginModule -->
<g id="edge28" class="edge">
<title>PageSignUpComponent&#45;&gt;LoginModule</title>
<path fill="none" stroke="black" d="M3243.08,-85.02C3243.08,-85.02 3243.08,-106.53 3243.08,-106.53"/>
<polygon fill="black" stroke="black" points="3239.58,-106.53 3243.08,-116.53 3246.58,-106.53 3239.58,-106.53"/>
</g>
<!-- LoginRoutingModule -->
<g id="node33" class="node">
<title>LoginRoutingModule</title>
<polygon fill="#8dd3c7" stroke="black" points="3087.11,-84.8 3084.11,-88.8 3063.11,-88.8 3060.11,-84.8 2948.89,-84.8 2948.89,-48.8 3087.11,-48.8 3087.11,-84.8"/>
<text text-anchor="middle" x="3018" y="-62.6" font-family="Times,serif" font-size="14.00">LoginRoutingModule</text>
</g>
<!-- LoginRoutingModule&#45;&gt;LoginModule -->
<g id="edge29" class="edge">
<title>LoginRoutingModule&#45;&gt;LoginModule</title>
<path fill="none" stroke="black" d="M3018,-84.83C3018,-101.2 3018,-122.8 3018,-122.8 3018,-122.8 3213.49,-122.8 3213.49,-122.8"/>
<polygon fill="black" stroke="black" points="3213.49,-126.3 3223.49,-122.8 3213.49,-119.3 3213.49,-126.3"/>
</g>
<!-- PageAddOrderComponent -->
<g id="node34" class="node">
<title>PageAddOrderComponent</title>
<polygon fill="#ffffb3" stroke="black" points="4378.79,-84.8 4213.21,-84.8 4213.21,-48.8 4378.79,-48.8 4378.79,-84.8"/>
<text text-anchor="middle" x="4296" y="-62.6" font-family="Times,serif" font-size="14.00">PageAddOrderComponent</text>
</g>
<!-- OrdersModule -->
<g id="node37" class="node">
<title>OrdersModule</title>
<polygon fill="#8dd3c7" stroke="black" points="4069.64,-152.8 4066.64,-156.8 4045.64,-156.8 4042.64,-152.8 3972.36,-152.8 3972.36,-116.8 4069.64,-116.8 4069.64,-152.8"/>
<text text-anchor="middle" x="4021" y="-130.6" font-family="Times,serif" font-size="14.00">OrdersModule</text>
</g>
<!-- PageAddOrderComponent&#45;&gt;OrdersModule -->
<g id="edge30" class="edge">
<title>PageAddOrderComponent&#45;&gt;OrdersModule</title>
<path fill="none" stroke="black" d="M4296,-85.02C4296,-105.17 4296,-134.8 4296,-134.8 4296,-134.8 4079.85,-134.8 4079.85,-134.8"/>
<polygon fill="black" stroke="black" points="4079.85,-131.3 4069.85,-134.8 4079.85,-138.3 4079.85,-131.3"/>
</g>
<!-- PageEditOrderComponent -->
<g id="node35" class="node">
<title>PageEditOrderComponent</title>
<polygon fill="#ffffb3" stroke="black" points="4195.02,-84.8 4030.98,-84.8 4030.98,-48.8 4195.02,-48.8 4195.02,-84.8"/>
<text text-anchor="middle" x="4113" y="-62.6" font-family="Times,serif" font-size="14.00">PageEditOrderComponent</text>
</g>
<!-- PageEditOrderComponent&#45;&gt;OrdersModule -->
<g id="edge31" class="edge">
<title>PageEditOrderComponent&#45;&gt;OrdersModule</title>
<path fill="none" stroke="black" d="M4050.28,-85.02C4050.28,-85.02 4050.28,-106.53 4050.28,-106.53"/>
<polygon fill="black" stroke="black" points="4046.78,-106.53 4050.28,-116.53 4053.78,-106.53 4046.78,-106.53"/>
</g>
<!-- PageListOrdersComponent -->
<g id="node36" class="node">
<title>PageListOrdersComponent</title>
<polygon fill="#ffffb3" stroke="black" points="4013.41,-84.8 3844.59,-84.8 3844.59,-48.8 4013.41,-48.8 4013.41,-84.8"/>
<text text-anchor="middle" x="3929" y="-62.6" font-family="Times,serif" font-size="14.00">PageListOrdersComponent</text>
</g>
<!-- PageListOrdersComponent&#45;&gt;OrdersModule -->
<g id="edge32" class="edge">
<title>PageListOrdersComponent&#45;&gt;OrdersModule</title>
<path fill="none" stroke="black" d="M3992.69,-85.02C3992.69,-85.02 3992.69,-106.53 3992.69,-106.53"/>
<polygon fill="black" stroke="black" points="3989.19,-106.53 3992.69,-116.53 3996.19,-106.53 3989.19,-106.53"/>
</g>
<!-- OrdersRoutingModule -->
<g id="node38" class="node">
<title>OrdersRoutingModule</title>
<polygon fill="#8dd3c7" stroke="black" points="3821.25,-84.8 3818.25,-88.8 3797.25,-88.8 3794.25,-84.8 3678.75,-84.8 3678.75,-48.8 3821.25,-48.8 3821.25,-84.8"/>
<text text-anchor="middle" x="3750" y="-62.6" font-family="Times,serif" font-size="14.00">OrdersRoutingModule</text>
</g>
<!-- OrdersRoutingModule&#45;&gt;OrdersModule -->
<g id="edge33" class="edge">
<title>OrdersRoutingModule&#45;&gt;OrdersModule</title>
<path fill="none" stroke="black" d="M3750,-85.09C3750,-107.01 3750,-140.8 3750,-140.8 3750,-140.8 3962.24,-140.8 3962.24,-140.8"/>
<polygon fill="black" stroke="black" points="3962.24,-144.3 3972.24,-140.8 3962.24,-137.3 3962.24,-144.3"/>
</g>
<!-- PageNotFoundComponent -->
<g id="node39" class="node">
<title>PageNotFoundComponent</title>
<polygon fill="#ffffb3" stroke="black" points="4796.82,-84.8 4631.18,-84.8 4631.18,-48.8 4796.82,-48.8 4796.82,-84.8"/>
<text text-anchor="middle" x="4714" y="-62.6" font-family="Times,serif" font-size="14.00">PageNotFoundComponent</text>
</g>
<!-- PageNotFoundModule -->
<g id="node40" class="node">
<title>PageNotFoundModule</title>
<polygon fill="#8dd3c7" stroke="black" points="4684.54,-152.8 4681.54,-156.8 4660.54,-156.8 4657.54,-152.8 4541.46,-152.8 4541.46,-116.8 4684.54,-116.8 4684.54,-152.8"/>
<text text-anchor="middle" x="4613" y="-130.6" font-family="Times,serif" font-size="14.00">PageNotFoundModule</text>
</g>
<!-- PageNotFoundComponent&#45;&gt;PageNotFoundModule -->
<g id="edge34" class="edge">
<title>PageNotFoundComponent&#45;&gt;PageNotFoundModule</title>
<path fill="none" stroke="black" d="M4658.05,-85.02C4658.05,-85.02 4658.05,-106.53 4658.05,-106.53"/>
<polygon fill="black" stroke="black" points="4654.55,-106.53 4658.05,-116.53 4661.55,-106.53 4654.55,-106.53"/>
</g>
<!-- PageNotFoundRoutingModule -->
<g id="node41" class="node">
<title>PageNotFoundRoutingModule</title>
<polygon fill="#8dd3c7" stroke="black" points="4607.16,-84.8 4604.16,-88.8 4583.16,-88.8 4580.16,-84.8 4418.84,-84.8 4418.84,-48.8 4607.16,-48.8 4607.16,-84.8"/>
<text text-anchor="middle" x="4513" y="-62.6" font-family="Times,serif" font-size="14.00">PageNotFoundRoutingModule</text>
</g>
<!-- PageNotFoundRoutingModule&#45;&gt;PageNotFoundModule -->
<g id="edge35" class="edge">
<title>PageNotFoundRoutingModule&#45;&gt;PageNotFoundModule</title>
<path fill="none" stroke="black" d="M4574.28,-85.02C4574.28,-85.02 4574.28,-106.53 4574.28,-106.53"/>
<polygon fill="black" stroke="black" points="4570.78,-106.53 4574.28,-116.53 4577.78,-106.53 4570.78,-106.53"/>
</g>
<!-- Ui2Component -->
<g id="node42" class="node">
<title>Ui2Component</title>
<polygon fill="#ffffb3" stroke="black" points="5056.33,-84.8 4953.67,-84.8 4953.67,-48.8 5056.33,-48.8 5056.33,-84.8"/>
<text text-anchor="middle" x="5005" y="-62.6" font-family="Times,serif" font-size="14.00">Ui2Component</text>
</g>
<!-- UiModule -->
<g id="node44" class="node">
<title>UiModule</title>
<polygon fill="#8dd3c7" stroke="black" points="4924.55,-152.8 4921.55,-156.8 4900.55,-156.8 4897.55,-152.8 4851.45,-152.8 4851.45,-116.8 4924.55,-116.8 4924.55,-152.8"/>
<text text-anchor="middle" x="4888" y="-130.6" font-family="Times,serif" font-size="14.00">UiModule</text>
</g>
<!-- Ui2Component&#45;&gt;UiModule -->
<g id="edge36" class="edge">
<title>Ui2Component&#45;&gt;UiModule</title>
<path fill="none" stroke="black" d="M5022.05,-85.07C5022.05,-103.36 5022.05,-128.8 5022.05,-128.8 5022.05,-128.8 4934.63,-128.8 4934.63,-128.8"/>
<polygon fill="black" stroke="black" points="4934.63,-125.3 4924.63,-128.8 4934.63,-132.3 4934.63,-125.3"/>
</g>
<!-- UiComponent -->
<g id="node43" class="node">
<title>UiComponent</title>
<polygon fill="#ffffb3" stroke="black" points="4935.83,-84.8 4840.17,-84.8 4840.17,-48.8 4935.83,-48.8 4935.83,-84.8"/>
<text text-anchor="middle" x="4888" y="-62.6" font-family="Times,serif" font-size="14.00">UiComponent</text>
</g>
<!-- UiComponent&#45;&gt;UiModule -->
<g id="edge37" class="edge">
<title>UiComponent&#45;&gt;UiModule</title>
<path fill="none" stroke="black" d="M4888,-85.02C4888,-85.02 4888,-106.53 4888,-106.53"/>
<polygon fill="black" stroke="black" points="4884.5,-106.53 4888,-116.53 4891.5,-106.53 4884.5,-106.53"/>
</g>
<!-- Ui2Component  -->
<g id="node45" class="node">
<title>Ui2Component </title>
<polygon fill="#fb8072" stroke="black" points="5058.83,-220.8 4953.17,-220.8 4953.17,-184.8 5058.83,-184.8 5058.83,-220.8"/>
<text text-anchor="middle" x="5006" y="-198.6" font-family="Times,serif" font-size="14.00">Ui2Component </text>
</g>
<!-- UiModule&#45;&gt;Ui2Component  -->
<g id="edge38" class="edge">
<title>UiModule&#45;&gt;Ui2Component </title>
<path fill="none" stroke="black" stroke-dasharray="5,2" d="M4924.65,-140.8C4953.17,-140.8 4987.95,-140.8 4987.95,-140.8 4987.95,-140.8 4987.95,-174.53 4987.95,-174.53"/>
<polygon fill="black" stroke="black" points="4984.45,-174.53 4987.95,-184.53 4991.45,-174.53 4984.45,-174.53"/>
</g>
<!-- UiComponent  -->
<g id="node46" class="node">
<title>UiComponent </title>
<polygon fill="#fb8072" stroke="black" points="4935.33,-220.8 4836.67,-220.8 4836.67,-184.8 4935.33,-184.8 4935.33,-220.8"/>
<text text-anchor="middle" x="4886" y="-198.6" font-family="Times,serif" font-size="14.00">UiComponent </text>
</g>
<!-- UiModule&#45;&gt;UiComponent  -->
<g id="edge39" class="edge">
<title>UiModule&#45;&gt;UiComponent </title>
<path fill="none" stroke="black" stroke-dasharray="5,2" d="M4888,-153.02C4888,-153.02 4888,-174.53 4888,-174.53"/>
<polygon fill="black" stroke="black" points="4884.5,-174.53 4888,-184.53 4891.5,-174.53 4884.5,-174.53"/>
</g>
</g>
</svg>
